HIERARCHY
ROOT root
{
	OFFSET	0	13.1	24.9
	CHANNELS 6  Xposition Yposition Zposition Xrotation Yrotation Zrotation
	JOINT spine_1
	{
		OFFSET	0	9.99999	0
		CHANNELS 3  Xrotation Yrotation Zrotation
		JOINT spine_2
		{
			OFFSET	0	112	-10
			CHANNELS 3  Xrotation Yrotation Zrotation
			JOINT spine_3
			{
				OFFSET	0	206.5	19.3
				CHANNELS 3  Xrotation Yrotation Zrotation
				JOINT spine_4
				{
					OFFSET	0	110.4	14.6
					CHANNELS 3  Xrotation Yrotation Zrotation
					JOINT neck_1
					{
						OFFSET	0	71.8	-50.3
						CHANNELS 3  Xrotation Yrotation Zrotation
						JOINT neck_2
						{
							OFFSET	0	86.2	-25.8
							CHANNELS 3  Xrotation Yrotation Zrotation
							JOINT head_ee
							{
								OFFSET	0	179.8	-8.7
								CHANNELS 3  Xrotation Yrotation Zrotation
								End Site
								{
									OFFSET	1	0	0
								}
							}
						}
					}
					JOINT left_clavicle
					{
						OFFSET	-43.2	22.4	-70.8
						CHANNELS 3  Xrotation Yrotation Zrotation
						JOINT left_shoulder
						{
							OFFSET	-93.9	-5.79999	48.7
							CHANNELS 3  Xrotation Yrotation Zrotation
							JOINT left_elbow
							{
								OFFSET	-291.4	-30.8	15.2
								CHANNELS 3  Xrotation Yrotation Zrotation
								JOINT left_lowarm_twist
								{
									OFFSET	-110.7	-3.89999	13.6
									CHANNELS 3  Xrotation Yrotation Zrotation
									JOINT left_hand
									{
										OFFSET	-110.7	-3.89999	13.6
										CHANNELS 3  Xrotation Yrotation Zrotation
										JOINT left_ee
										{
											OFFSET	-80.8	-5.10001	12.1
											CHANNELS 3  Xrotation Yrotation Zrotation
											End Site
											{
												OFFSET	1	0	0
											}
										}
									}
								}
							}
						}
					}
					JOINT right_clavicle
					{
						OFFSET	43.2	22.4	-70.8
						CHANNELS 3  Xrotation Yrotation Zrotation
						JOINT right_shoulder
						{
							OFFSET	93.9	-5.79999	48.7
							CHANNELS 3  Xrotation Yrotation Zrotation
							JOINT right_elbow
							{
								OFFSET	291.4	-30.8	15.2
								CHANNELS 3  Xrotation Yrotation Zrotation
								JOINT right_lowarm_twist
								{
									OFFSET	110.7	-3.89999	13.6
									CHANNELS 3  Xrotation Yrotation Zrotation
									JOINT right_hand
									{
										OFFSET	110.7	-3.89999	13.6
										CHANNELS 3  Xrotation Yrotation Zrotation
										JOINT right_ee
										{
											OFFSET	80.8	-5.10001	12.1
											CHANNELS 3  Xrotation Yrotation Zrotation
											End Site
											{
												OFFSET	1	0	0
											}
										}
									}
								}
							}
						}
					}
				}
			}
		}
	}
	JOINT left_hip
	{
		OFFSET	-82.8	-127.5	0.300001
		CHANNELS 3  Xrotation Yrotation Zrotation
		JOINT left_knee
		{
			OFFSET	-28.2	-396.7	2.2
			CHANNELS 3  Xrotation Yrotation Zrotation
			JOINT left_ankle
			{
				OFFSET	-11.7	-411.3	35.4
				CHANNELS 3  Xrotation Yrotation Zrotation
				JOINT left_toes
				{
					OFFSET	0	-60	-88.6
					CHANNELS 3  Xrotation Yrotation Zrotation
					JOINT left_foot_ee
					{
						OFFSET	-22.5	-16.5	-42.2
						CHANNELS 3  Xrotation Yrotation Zrotation
						End Site
						{
							OFFSET	1	0	0
						}
					}
				}
			}
		}
	}
	JOINT right_hip
	{
		OFFSET	82.8	-127.5	0.300001
		CHANNELS 3  Xrotation Yrotation Zrotation
		JOINT right_knee
		{
			OFFSET	28.2	-396.7	2.2
			CHANNELS 3  Xrotation Yrotation Zrotation
			JOINT right_ankle
			{
				OFFSET	11.7	-411.3	35.4
				CHANNELS 3  Xrotation Yrotation Zrotation
				JOINT right_toes
				{
					OFFSET	0	-60	-88.6
					CHANNELS 3  Xrotation Yrotation Zrotation
					JOINT right_foot_ee
					{
						OFFSET	22.5	-16.5	-42.2
						CHANNELS 3  Xrotation Yrotation Zrotation
						End Site
						{
							OFFSET	1	0	0
						}
					}
				}
			}
		}
	}
}
MOTION
Frames: 10
Frame Time: 0.02
2824.35573437 689.197 -1633.98328326 -133.649731632 76.2603570001 136.314229863 4.08399 -0.318357 1.65967 4.08542 -0.423307 1.63606 4.07245 -0.648737 1.56047 4.06927 -0.394183 1.64332 -7.73035 -2.97994 -5.4932 -7.64765 -1.64228 -6.0893 -0.0 0.0 -0.0 4.82136 -19.6544 8.08073 -8.0813 -42.4339 50.4208 0.976835 -25.8216 0.223924 -12.9523 -0.63198 1.52722 0.0313093 5.58283 2.53811 -0.0 0.0 -0.0 6.79052 -10.763 -12.9771 -41.3248 13.3231 -60.495 1.58909 38.2066 -0.550407 35.066 0.117805 4.40877 -0.932121 -12.2171 0.857701 0.0 0.0 0.0 16.5051 -7.35844 1.33284 1.67022 -0.0723729 -0.246068 2.61468 -26.8356 -0.464794 -14.9182 0.0 0.0 -0.0 0.0 -0.0 22.2751 -18.6911 2.18137 -42.946 0.664752 -6.4057 10.3465 1.48094 1.48862 -7.08835 0.0 0.0 0.0 0.0 0.0 
2810.38815189 691.089 -1618.08526532 -142.882099596 75.144302541 146.373428863 4.10412 -0.548673 1.45191 4.10507 -0.639941 1.41406 4.08868 -0.83172 1.31049 4.08681 -0.614338 1.42537 -6.13184 -2.92894 -4.54834 -6.07614 -2.06965 -5.13674 -0.0 0.0 -0.0 4.57525 -18.114 7.68436 -7.60364 -41.9964 49.8759 1.04955 -27.47 0.256538 -12.6922 -0.615937 1.49807 -0.0985486 5.53959 1.66901 -0.0 0.0 -0.0 6.8403 -10.6099 -13.0713 -43.0666 13.1989 -60.6908 1.46825 36.0272 -0.477473 33.6988 0.0627006 4.24292 -0.717422 -10.7009 0.15307 0.0 0.0 0.0 15.1165 -7.77071 0.120539 -0.0770832 0.00316616 0.0114054 4.86317 -26.6244 -0.855675 -14.1937 0.0 0.0 -0.0 0.0 -0.0 22.8924 -25.0218 3.48213 -40.2143 0.480458 -6.02825 8.9374 6.67555 1.31764 -6.97593 0.0 0.0 0.0 0.0 0.0 
2797.98310391 687.656 -1593.8171976 -145.934588754 72.9949737084 150.426634986 4.1593 -0.668288 1.27093 4.15989 -0.7478 1.22584 4.14351 -0.911077 1.10988 4.14252 -0.724372 1.23982 -4.13086 -2.60359 -3.30872 -4.10176 -2.23368 -3.8184 -0.0 0.0 -0.0 4.49606 -16.3424 7.66313 -6.38797 -41.5065 49.0811 1.14605 -29.5835 0.302633 -12.3171 -0.593025 1.45588 -0.400331 5.46974 -0.337585 -0.0 0.0 -0.0 6.83612 -10.3908 -13.0727 -45.4368 13.1582 -61.2622 1.39418 34.6284 -0.434638 32.0241 0.000628911 4.03808 -0.22642 -8.54572 -2.08726 0.0 0.0 0.0 13.593 -8.32027 -1.57543 -2.47412 0.0939332 0.368047 8.08801 -26.3603 -1.40136 -12.5673 0.0 0.0 -0.0 0.0 -0.0 24.0476 -34.0753 5.64949 -36.4263 0.255201 -5.49149 6.34168 14.0562 0.984938 -6.77832 0.0 0.0 0.0 0.0 0.0 
2788.89211644 684.069 -1571.86911925 -147.102600575 72.1058988674 151.790422613 4.12193 -0.591767 1.03458 4.12228 -0.656398 0.994833 4.11065 -0.788898 0.89342 4.11011 -0.637906 1.00679 -1.55537 -2.02974 -1.5884 -1.54736 -2.38578 -1.93364 -0.0 0.0 -0.0 4.49208 -14.0053 7.84006 -4.47782 -41.8354 48.5787 1.28587 -32.4949 0.37475 -11.761 -0.559574 1.39308 -0.491564 5.4266 -0.953801 -0.0 0.0 -0.0 6.82866 -9.85857 -13.0801 -47.3399 12.8006 -61.7086 1.29104 32.5991 -0.37753 30.1695 -0.0610854 3.80926 0.258568 -5.56922 -4.02368 0.0 0.0 0.0 13.5282 -9.0809 -3.14521 -4.52636 0.15972 0.676118 9.12231 -26.5618 -1.57771 -10.7537 0.0 0.0 -0.0 0.0 -0.0 25.9385 -42.8647 7.85628 -30.9867 -0.00500984 -4.69783 4.40143 21.6588 0.734251 -6.42962 0.0 0.0 0.0 0.0 0.0 
2779.17092189 690.298 -1554.58244511 -146.280527065 71.8694332652 151.081480403 3.57951 -0.0250976 0.455891 3.57962 -0.054056 0.453371 3.57914 -0.120889 0.440287 3.57887 -0.0498375 0.453854 0.60152 -3.07724 0.157794 0.626296 -5.59018 -0.13229 -0.0 0.0 -0.0 5.02256 -8.96049 9.29595 -1.34632 -43.2455 47.5163 1.89543 -43.1918 0.750354 -12.7335 -0.618471 1.50269 -0.596156 2.5729 -2.87091 -0.0 0.0 -0.0 7.12125 -9.06434 -13.6377 -47.3785 12.0975 -62.3462 0.974842 25.7758 -0.223057 29.3147 -0.087027 3.70315 1.59976 -3.17045 -12.0037 0.0 0.0 0.0 14.1273 -8.442 -2.65721 -4.6218 0.162511 0.6905 11.7016 -27.9068 -2.03439 -7.91982 0.0 0.0 -0.0 0.0 -0.0 28.1384 -53.2769 5.03264 -10.1352 -0.282795 -1.5277 -6.53337 26.5448 -1.18541 -10.4493 0.0 0.0 0.0 0.0 0.0 
2779.48023732 690.298 -1553.51500622 -146.539386013 71.7413267689 151.353962891 3.57951 -0.0250976 0.455891 3.57962 -0.054056 0.453371 3.57914 -0.120889 0.440287 3.57887 -0.0498375 0.453854 0.60152 -3.07724 0.157794 0.626296 -5.59018 -0.13229 -0.0 0.0 -0.0 5.02256 -8.96049 9.29595 -1.34632 -43.2455 47.5163 1.89543 -43.1918 0.750354 -12.7335 -0.618471 1.50269 -0.596156 2.5729 -2.87091 -0.0 0.0 -0.0 7.12125 -9.06434 -13.6377 -47.3785 12.0975 -62.3462 0.974842 25.7758 -0.223057 29.3147 -0.087027 3.70315 1.59976 -3.17045 -12.0037 0.0 0.0 0.0 14.1273 -8.442 -2.65721 -4.6218 0.162511 0.6905 11.7016 -27.9068 -2.03439 -7.91982 0.0 0.0 -0.0 0.0 -0.0 28.1384 -53.2769 5.03264 -10.1352 -0.282795 -1.5277 -6.53337 26.5448 -1.18541 -10.4493 0.0 0.0 0.0 0.0 0.0 
2780.5440995 690.298 -1549.92261574 -147.385334873 71.3066936286 152.24587625 3.57951 -0.0250976 0.455891 3.57962 -0.054056 0.453371 3.57914 -0.120889 0.440287 3.57887 -0.0498375 0.453854 0.60152 -3.07724 0.157794 0.626296 -5.59018 -0.13229 -0.0 0.0 -0.0 5.02256 -8.96049 9.29595 -1.34632 -43.2455 47.5163 1.89543 -43.1918 0.750354 -12.7335 -0.618471 1.50269 -0.596156 2.5729 -2.87091 -0.0 0.0 -0.0 7.12125 -9.06434 -13.6377 -47.3785 12.0975 -62.3462 0.974842 25.7758 -0.223057 29.3147 -0.087027 3.70315 1.59976 -3.17045 -12.0037 0.0 0.0 0.0 14.1273 -8.442 -2.65721 -4.6218 0.162511 0.6905 11.7016 -27.9068 -2.03439 -7.91982 0.0 0.0 -0.0 0.0 -0.0 28.1384 -53.2769 5.03264 -10.1352 -0.282795 -1.5277 -6.53337 26.5448 -1.18541 -10.4493 0.0 0.0 0.0 0.0 0.0 
2778.93565664 692.261 -1545.56261028 -146.281551244 70.9489953922 151.272543994 3.38509 0.255951 0.209832 3.38509 0.24208 0.225694 3.38605 0.204946 0.259879 3.38604 0.243417 0.22425 1.56118 -3.5355 0.903441 1.61061 -6.98521 0.683114 -0.0 0.0 -0.0 5.5323 -8.78087 10.3652 -0.400932 -44.1009 47.0013 2.18802 -47.2989 0.958267 -12.7003 -0.616432 1.49897 -0.774049 2.23132 -4.20105 -0.0 0.0 -0.0 7.20087 -8.69494 -13.7974 -47.6435 11.7639 -62.8667 0.902935 24.0981 -0.192736 29.2109 -0.0900692 3.69024 1.97277 -3.50401 -14.6719 0.0 0.0 0.0 12.8121 -8.04392 -2.67372 -4.65773 0.163555 0.695915 14.5952 -29.3712 -2.54985 -6.10882 0.0 0.0 -0.0 0.0 -0.0 29.1017 -53.5268 4.06181 -4.72963 -0.165634 -0.706754 -8.80798 28.0208 -1.63512 -10.4558 0.0 0.0 0.0 0.0 0.0 
2763.13536681 691.934 -1542.16797159 -150.789419816 71.5791741834 155.06541881 2.94048 0.26382 0.208389 2.94047 0.250025 0.224754 2.94146 0.210917 0.261803 2.94145 0.249617 0.225207 1.43513 -3.26187 1.16442 1.48356 -6.72495 0.986108 -0.0 0.0 -0.0 6.35989 -8.8671 12.088 0.531905 -45.3705 46.9839 2.25917 -48.2109 1.01094 -12.7369 -0.618683 1.50308 -0.758252 1.81389 -4.27818 -0.0 0.0 -0.0 7.11334 -8.79759 -13.634 -48.0637 11.1861 -63.4287 0.869639 23.3058 -0.179352 29.0561 -0.0945619 3.67098 2.0373 -3.83451 -15.2404 0.0 0.0 0.0 11.9738 -7.39229 -2.16072 -4.54945 0.160397 0.679597 15.2964 -29.6138 -2.67134 -5.83391 0.0 0.0 -0.0 0.0 -0.0 29.3578 -53.7237 2.6349 -0.966275 -0.0385793 -0.143267 -8.94758 26.5968 -1.63168 -10.9986 0.0 0.0 0.0 0.0 0.0 
2757.62295312 684.426 -1544.13477011 -150.678853108 71.0847896797 154.737785184 2.89877 0.255798 0.0588056 2.89874 0.251538 0.0749636 2.89908 0.23625 0.114353 2.89915 0.251345 0.0756066 1.25208 -2.93563 1.43986 1.29889 -6.38343 1.30652 -0.0 0.0 -0.0 6.83223 -8.54775 13.0905 1.93713 -45.9308 46.6836 2.35965 -49.4457 1.08658 -12.7819 -0.621452 1.50813 -0.750577 1.47004 -4.37709 -0.0 0.0 -0.0 6.99594 -8.94174 -13.4155 -48.7336 10.7326 -63.9238 0.823646 22.1958 -0.161564 29.011 -0.0958606 3.66537 2.10512 -3.96366 -15.7551 0.0 0.0 0.0 11.3647 -6.52193 -1.24096 -4.02268 0.144598 0.600298 16.2943 -29.9635 -2.84398 -5.44815 0.0 0.0 -0.0 0.0 -0.0 29.2394 -53.8855 0.4297 2.5418 0.112985 0.373628 -9.14121 24.5987 -1.62833 -11.5436 0.0 0.0 0.0 0.0 0.0 
